<svg width="643" height="448" viewBox="0 0 643 448" fill="none" xmlns="http://www.w3.org/2000/svg">
<path d="M-6.15509 205.902H3.84491V447.788H-6.15509V205.902Z" fill="#7DF372" fill-opacity="0.33"/>
<path d="M59.501 67.0703H69.501V447.788H59.501V67.0703Z" fill="#7DF372" fill-opacity="0.33"/>
<path d="M125.157 275.901H135.157V447.788H125.157V275.901Z" fill="#7DF372" fill-opacity="0.33"/>
<path d="M190.812 128.125H200.812V447.788H190.812V128.125Z" fill="#7DF372" fill-opacity="0.33"/>
<path d="M256.468 338.9H266.468V447.788H256.468V338.9Z" fill="#7DF372" fill-opacity="0.33"/>
<path d="M322.124 186.069H332.124V447.788H322.124V186.069Z" fill="#7DF372" fill-opacity="0.33"/>
<path d="M387.78 227.291H397.78V447.788H387.78V227.291Z" fill="#7DF372" fill-opacity="0.33"/>
<path d="M453.435 264.235H463.435V447.788H453.435V264.235Z" fill="#7DF372" fill-opacity="0.33"/>
<path d="M519.091 138.236H529.091V447.788H519.091V138.236Z" fill="#7DF372" fill-opacity="0.33"/>
<path d="M584.747 343.956H594.747V447.788H584.747V343.956Z" fill="#7DF372" fill-opacity="0.33"/>
<path d="M8.82355 300.789H18.8235V447.788H8.82355V300.789Z" fill="#2FC4B0" fill-opacity="0.39"/>
<path d="M74.4796 72.9031H84.4796V447.788H74.4796V72.9031Z" fill="#2FC4B0" fill-opacity="0.39"/>
<path d="M140.136 95.8472H150.136V447.788H140.136V95.8472Z" fill="#2FC4B0" fill-opacity="0.39"/>
<path d="M205.791 153.402H215.791V447.788H205.791V153.402Z" fill="#2FC4B0" fill-opacity="0.39"/>
<path d="M271.447 340.067H281.447V447.788H271.447V340.067Z" fill="#2FC4B0" fill-opacity="0.39"/>
<path d="M337.103 419.788H347.103V447.788H337.103V419.788Z" fill="#2FC4B0" fill-opacity="0.39"/>
<path d="M402.759 400.344H412.759V447.788H402.759V400.344Z" fill="#2FC4B0" fill-opacity="0.39"/>
<path d="M468.414 377.399H478.414V447.788H468.414V377.399Z" fill="#2FC4B0" fill-opacity="0.39"/>
<path d="M534.07 376.233H544.07V447.788H534.07V376.233Z" fill="#2FC4B0" fill-opacity="0.39"/>
<path d="M599.726 373.9H609.726V447.788H599.726V373.9Z" fill="#2FC4B0" fill-opacity="0.39"/>
<path d="M-790.847 260.825L-736.013 146.602L-681.179 107.888L-626.344 202.947L-571.51 279.607L-516.675 245.876L-461.841 215.979L-407.006 144.685L-352.172 332.886L-297.337 175.732L-242.503 106.355L-187.669 278.84L-132.834 169.216L-77.9997 348.601L-23.1653 7.84692L31.6691 209.463L86.5036 12.8298L141.338 55.3762L196.172 180.332L251.007 124.754L305.841 347.451L360.676 165.383L415.51 337.102L470.345 212.913L525.179 129.353L580.013 258.142L634.848 18.196" stroke="#B1F779"/>
<path d="M31.6688 216.65C35.6189 216.65 38.8211 213.432 38.8211 209.463C38.8211 205.494 35.6189 202.276 31.6688 202.276C27.7187 202.276 24.5165 205.494 24.5165 209.463C24.5165 213.432 27.7187 216.65 31.6688 216.65Z" fill="#B1F779" fill-opacity="0.45" stroke="#0C0D0E"/>
<path d="M86.5038 20.0168C90.4539 20.0168 93.6561 16.7992 93.6561 12.8299C93.6561 8.86074 90.4539 5.64307 86.5038 5.64307C82.5537 5.64307 79.3515 8.86074 79.3515 12.8299C79.3515 16.7992 82.5537 20.0168 86.5038 20.0168Z" fill="#B1F779" fill-opacity="0.45" stroke="#0C0D0E"/>
<path d="M141.338 62.5632C145.288 62.5632 148.49 59.3455 148.49 55.3763C148.49 51.4071 145.288 48.1895 141.338 48.1895C137.388 48.1895 134.186 51.4071 134.186 55.3763C134.186 59.3455 137.388 62.5632 141.338 62.5632Z" fill="#B1F779" fill-opacity="0.45" stroke="#0C0D0E"/>
<path d="M196.172 187.519C200.122 187.519 203.324 184.301 203.324 180.332C203.324 176.363 200.122 173.145 196.172 173.145C192.222 173.145 189.02 176.363 189.02 180.332C189.02 184.301 192.222 187.519 196.172 187.519Z" fill="#B1F779" fill-opacity="0.45" stroke="#0C0D0E"/>
<path d="M251.007 131.94C254.957 131.94 258.159 128.723 258.159 124.754C258.159 120.784 254.957 117.567 251.007 117.567C247.057 117.567 243.855 120.784 243.855 124.754C243.855 128.723 247.057 131.94 251.007 131.94Z" fill="#B1F779" fill-opacity="0.45" stroke="#0C0D0E"/>
<path d="M305.841 354.638C309.791 354.638 312.993 351.42 312.993 347.451C312.993 343.482 309.791 340.264 305.841 340.264C301.891 340.264 298.689 343.482 298.689 347.451C298.689 351.42 301.891 354.638 305.841 354.638Z" fill="#B1F779" fill-opacity="0.45" stroke="#0C0D0E"/>
<path d="M360.676 172.57C364.626 172.57 367.828 169.353 367.828 165.383C367.828 161.414 364.626 158.197 360.676 158.197C356.726 158.197 353.524 161.414 353.524 165.383C353.524 169.353 356.726 172.57 360.676 172.57Z" fill="#B1F779" fill-opacity="0.45" stroke="#0C0D0E"/>
<path d="M415.51 344.289C419.46 344.289 422.662 341.071 422.662 337.102C422.662 333.133 419.46 329.915 415.51 329.915C411.56 329.915 408.358 333.133 408.358 337.102C408.358 341.071 411.56 344.289 415.51 344.289Z" fill="#B1F779" fill-opacity="0.45" stroke="#0C0D0E"/>
<path d="M470.344 220.1C474.294 220.1 477.496 216.882 477.496 212.913C477.496 208.944 474.294 205.726 470.344 205.726C466.394 205.726 463.192 208.944 463.192 212.913C463.192 216.882 466.394 220.1 470.344 220.1Z" fill="#B1F779" fill-opacity="0.45" stroke="#0C0D0E"/>
<path d="M525.179 136.54C529.129 136.54 532.331 133.322 532.331 129.353C532.331 125.384 529.129 122.166 525.179 122.166C521.229 122.166 518.027 125.384 518.027 129.353C518.027 133.322 521.229 136.54 525.179 136.54Z" fill="#B1F779" fill-opacity="0.45" stroke="#0C0D0E"/>
<path d="M580.013 265.329C583.963 265.329 587.165 262.111 587.165 258.142C587.165 254.173 583.963 250.955 580.013 250.955C576.063 250.955 572.861 254.173 572.861 258.142C572.861 262.111 576.063 265.329 580.013 265.329Z" fill="#B1F779" fill-opacity="0.45" stroke="#0C0D0E"/>
<path d="M634.847 25.383C638.797 25.383 641.999 22.1654 641.999 18.1962C641.999 14.227 638.797 11.0093 634.847 11.0093C630.897 11.0093 627.695 14.227 627.695 18.1962C627.695 22.1654 630.897 25.383 634.847 25.383Z" fill="#B1F779" fill-opacity="0.45" stroke="#0C0D0E"/>
</svg>
