<svg width="1306" height="1073" viewBox="0 0 1306 1073" fill="none" xmlns="http://www.w3.org/2000/svg">
<path fill-rule="evenodd" clip-rule="evenodd" d="M213.53 626.198L186.922 610.846C172.352 602.433 172.359 588.828 186.943 580.454L431.188 440.255C445.771 431.885 469.407 431.92 483.977 440.332L511.034 455.942" fill="#9C73FF" fill-opacity="0.2"/>
<path fill-rule="evenodd" clip-rule="evenodd" d="M23.8925 1068.93C23.896 1069 23.9134 1069.08 23.9134 1069.16V1068.93H23.8925Z" fill="#8690A2"/>
<path fill-rule="evenodd" clip-rule="evenodd" d="M2.68746 238.932C1.47972 225.438 10.3933 208.826 22.5995 201.826L366.547 4.44287C378.747 -2.55296 389.62 2.70958 390.827 16.2035L416.138 297.412C417.342 310.906 408.428 327.518 396.226 334.514L52.2813 531.897C40.0751 538.897 29.202 533.631 27.9943 520.137L2.68746 238.932Z" fill="black"/>
<path fill-rule="evenodd" clip-rule="evenodd" d="M27.9949 520.139L2.68805 238.935C1.48031 225.441 10.3939 208.828 22.6001 201.829L366.548 4.44546C372.493 1.03456 378.121 0.55773 382.471 2.50682L382.485 2.48593L379.903 1.12157L379.892 1.14594C375.538 -0.806631 369.917 -0.329801 363.965 3.08458L20.021 200.468C7.81832 207.467 -1.09527 224.08 0.108985 237.57L25.4193 518.778C26.0388 525.694 29.2061 530.428 33.776 532.478L33.7621 532.502L36.3411 533.863L36.3516 533.842C31.7817 531.789 28.6144 527.055 27.9949 520.139Z" fill="#666666"/>
<path fill-rule="evenodd" clip-rule="evenodd" d="M190.991 509.668L176.213 348.545L218.292 324.425L232.253 484.292L190.991 509.668Z" fill="#3FD3B8"/>
<path fill-rule="evenodd" clip-rule="evenodd" d="M108.512 560.496L99.292 462.958L141.368 438.838L149.773 535.119L108.512 560.496Z" fill="#464FFF"/>
<path fill-rule="evenodd" clip-rule="evenodd" d="M273.575 458.975L249.232 188.856L291.312 164.736L314.836 433.598L273.575 458.975Z" fill="#4689FF"/>
<path fill-rule="evenodd" clip-rule="evenodd" d="M356.118 408.23L347.037 308.36L389.113 284.24L397.383 382.854L356.118 408.23Z" fill="#3FD3B8"/>
</svg>
